<svg id="artwork" xmlns="http://www.w3.org/2000/svg" viewBox="0 0 512 512"><title>New_arrival</title><g id="New_arrival"><rect x="168.2" y="32.94" width="275.18" height="447.4" style="fill:#fff"/><rect x="168.2" y="82.55" width="275.18" height="19.38" style="fill:#def1f9"/><rect x="168.2" y="393.96" width="275.18" height="19.38" style="fill:#def1f9"/><path d="M322.15,256.64c0,11-17.17,19.54-19.87,29.65-2.8,10.47,7.7,26.45,2.4,35.62s-24.52,8.15-32.06,15.7-6.41,26.68-15.7,32.06-25.15-5.2-35.62-2.4c-10.11,2.7-18.68,19.87-29.65,19.87S172.12,370,162,367.27c-10.47-2.8-26.45,7.7-35.62,2.4s-8.15-24.52-15.7-32.07S84,331.2,78.63,321.91s5.2-25.15,2.4-35.62c-2.7-10.11-19.87-18.68-19.87-29.65S78.33,237.11,81,227c2.8-10.47-7.7-26.45-2.4-35.62s24.52-8.15,32.06-15.7,6.41-26.68,15.7-32.06,25.15,5.2,35.62,2.4c10.11-2.7,18.68-19.87,29.64-19.87S211.19,143.32,221.3,146c10.47,2.8,26.45-7.7,35.62-2.4s8.15,24.52,15.7,32.06,26.68,6.41,32.06,15.7-5.2,25.15-2.4,35.62C305,237.11,322.15,245.68,322.15,256.64Z" style="fill:#def1f9"/><rect x="168.2" y="32.95" width="275.18" height="49.96" style="fill:#3e4757"/><polygon points="374.68 279.56 354.69 259.57 338.69 275.57 330.32 215.72 390.18 224.09 374.01 240.25 393.99 260.24 374.68 279.56" style="fill:#3dc9c9"/><rect x="168.2" y="413.3" width="275.18" height="67.05" style="fill:#3e4757"/><path d="M336,446.82a18.66,18.66,0,1,1-18.66-18.66A18.67,18.67,0,0,1,336,446.82Z" style="fill:#2f353f"/><path d="M319,446.82a13.24,13.24,0,1,1-13.24-13.24A13.24,13.24,0,0,1,319,446.82Z" style="fill:#fff"/><rect x="312.55" y="366.06" width="99.21" height="12" style="fill:#83afc6"/><rect x="312.55" y="343.06" width="99.21" height="12" style="fill:#83afc6"/><rect x="312.55" y="320.07" width="99.21" height="12" style="fill:#83afc6"/><rect x="292.55" y="51.93" width="26.48" height="12" style="fill:#fff"/><path d="M412,132.15H399v-12h13Zm-25,0H374v-12h13Zm-25,0H349v-12h13Z" style="fill:#9dc0d1"/><path d="M298.69,256.64c0,11-17.17,19.54-19.87,29.65-2.8,10.47,7.71,26.45,2.41,35.62s-24.53,8.15-32.07,15.7-6.41,26.68-15.7,32.06-25.15-5.2-35.61-2.4c-10.12,2.7-18.68,19.87-29.65,19.87S148.67,370,138.55,367.27c-10.47-2.8-26.45,7.7-35.61,2.4s-8.16-24.52-15.7-32.07-26.69-6.4-32.07-15.69,5.2-25.15,2.41-35.62c-2.71-10.11-19.88-18.68-19.88-29.65S54.87,237.11,57.58,227c2.79-10.47-7.71-26.45-2.41-35.62s24.52-8.15,32.07-15.7,6.4-26.68,15.7-32.06,25.14,5.2,35.61,2.4c10.12-2.7,18.68-19.87,29.65-19.87s19.53,17.17,29.65,19.87c10.46,2.8,26.45-7.7,35.61-2.4s8.16,24.52,15.7,32.06,26.69,6.41,32.07,15.7S276,216.53,278.82,227C281.52,237.11,298.69,245.68,298.69,256.64Z" style="fill:#ffaf9f"/><circle cx="168.16" cy="256.43" r="99.11" transform="matrix(1, -0.02, 0.02, 1, -5.53, 3.71)" style="fill:#f47a53"/><rect x="102.68" y="413.7" width="20.43" height="20.43" transform="translate(-266.69 204) rotate(-45)" style="fill:#3dc9c9"/><rect x="69.66" y="86.5" width="20.43" height="20.43" transform="translate(-44.99 84.8) rotate(-45)" style="fill:#3dc9c9"/><rect x="289.91" y="136.45" width="20.43" height="20.43" transform="translate(-15.8 255.19) rotate(-45)" style="fill:#f47a53"/><path d="M98.41,280.33V233.15h12.46l9.8,17.29a136.79,136.79,0,0,1,7.7,16.17h.21a175.09,175.09,0,0,1-.91-19.67V233.15h9.8v47.18h-11.2l-10.08-18.2A175.25,175.25,0,0,1,108,245.47l-.21.07c.28,6.23.42,12.88.42,20.58v14.21Z" style="fill:#fff;stroke:#fff;stroke-miterlimit:10"/><path d="M174.78,260.38H157.42v11.2h19.39v8.75h-30.1V233.15h29.12v8.75H157.42v9.8h17.36Z" style="fill:#fff;stroke:#fff;stroke-miterlimit:10"/><path d="M192.21,280.33,181,233.15h11.42L196,252.61c1,5.6,2,11.69,2.8,16.45h.14c.77-5.11,1.89-10.78,3.08-16.59l4-19.32h11.34L221.12,253c1,5.53,1.82,10.57,2.52,15.82h.14c.7-5.25,1.75-10.78,2.73-16.38l3.85-19.32h10.85L229,280.33H217.48l-4-20.3c-.91-4.76-1.68-9.17-2.24-14.56h-.14c-.84,5.32-1.61,9.8-2.73,14.56l-4.48,20.3Z" style="fill:#fff;stroke:#fff;stroke-miterlimit:10"/><path d="M73.87,64.58C73.87,79,65,90.71,54.05,90.71v12c10.93,0,19.82,11.73,19.82,26.13h12c0-14.4,8.9-26.13,19.83-26.13v-12C94.77,90.71,85.87,79,85.87,64.58ZM88.59,96.71a35.5,35.5,0,0,0-8.72,9.89,35.34,35.34,0,0,0-8.72-9.89,35.44,35.44,0,0,0,8.72-9.88A35.59,35.59,0,0,0,88.59,96.71Z"/><path d="M106.48,453.48h12c0-13,8-23.56,17.76-23.56v-12c-9.79,0-17.76-10.57-17.76-23.56h-12c0,13-8,23.56-17.76,23.56v12C98.52,429.92,106.48,440.49,106.48,453.48Zm6-37.74a33.22,33.22,0,0,0,7.24,8.18,33.17,33.17,0,0,0-7.24,8.17,33.13,33.13,0,0,0-7.23-8.17A33.18,33.18,0,0,0,112.48,415.74Z"/><path d="M306.13,115.61h-12c0,13.82-8.51,25.06-19,25.06v12c10.46,0,19,11.24,19,25.06h12c0-13.82,8.51-25.06,19-25.06v-12C314.64,140.67,306.13,129.43,306.13,115.61Zm-6,40.23a34.36,34.36,0,0,0-8.11-9.17,34.36,34.36,0,0,0,8.11-9.17,34.36,34.36,0,0,0,8.11,9.17A34.36,34.36,0,0,0,300.13,155.84Z"/><path d="M334.41,288.34l20.28-20.28,20,20,27.8-27.8-20-20,20.44-20.44-79.65-11.13Zm43-60-11.9,11.89,20,20-10.83,10.83-20-20L343,262.81l-5.6-40Z"/><rect x="312.55" y="354.33" width="99.21" height="12"/><rect x="312.55" y="331.34" width="99.21" height="12"/><rect x="312.55" y="308.34" width="99.21" height="12"/><path d="M305.79,427.58A19.24,19.24,0,1,0,325,446.82,19.26,19.26,0,0,0,305.79,427.58Zm0,26.48a7.24,7.24,0,1,1,7.24-7.24A7.25,7.25,0,0,1,305.79,454.06Z"/><rect x="399" y="108.48" width="13" height="12"/><rect x="349" y="108.48" width="13" height="12"/><rect x="374" y="108.48" width="13" height="12"/><path d="M273.09,256.64a104.8,104.8,0,0,0-26.17-69.33l-9,7.94A92.93,92.93,0,1,1,224.77,183l7.32-9.52a103.94,103.94,0,0,0-63.89-21.69A104.9,104.9,0,1,0,273.09,256.64Z"/><path d="M449.38,26.94H162.2v62h0v13.18h12V88.91H437.38V407.3H174.2V392.06c5.69-2.06,10.44-6.72,14.76-10.94,3.64-3.57,7.4-7.25,10.44-8.06,3.28-.87,8.55.46,13.64,1.75,7.67,1.95,16.35,4.15,23.43.06s9.61-12.86,11.76-20.53c1.4-5,2.85-10.17,5.17-12.49s7.49-3.77,12.49-5.17c7.68-2.15,16.37-4.59,20.53-11.77s1.89-15.76-.05-23.42c-1.29-5.09-2.63-10.36-1.75-13.65.81-3,4.49-6.79,8.05-10.43,5.63-5.76,12-12.29,12-20.77s-6.39-15-12-20.76c-3.56-3.64-7.24-7.4-8.05-10.43-.88-3.29.46-8.56,1.75-13.65,1.94-7.66,4.14-16.34.05-23.42s-12.85-9.62-20.53-11.77c-5-1.4-10.17-2.85-12.49-5.17S249.63,164,248.23,159c-2.15-7.67-4.59-16.37-11.76-20.53s-15.76-1.89-23.43.06c-5.09,1.29-10.36,2.62-13.65,1.75-3-.81-6.79-4.5-10.43-8.06-5.76-5.63-12.28-12-20.76-12s-15,6.39-20.77,12c-3.63,3.56-7.4,7.25-10.43,8.06-3.28.87-8.55-.46-13.65-1.76-7.66-1.94-16.34-4.14-23.42-.05S90.32,151.28,88.17,159c-1.4,5-2.85,10.17-5.17,12.49s-7.5,3.77-12.5,5.17c-7.67,2.15-16.37,4.59-20.52,11.77s-1.9,15.76.05,23.42c1.29,5.09,2.63,10.36,1.75,13.65-.81,3-4.49,6.79-8.05,10.43-5.64,5.76-12,12.29-12,20.76s6.39,15,12,20.77c3.56,3.64,7.24,7.4,8.05,10.43.88,3.29-.46,8.56-1.75,13.65-2,7.66-4.15,16.34-.05,23.42s12.85,9.62,20.52,11.77c5,1.4,10.17,2.85,12.5,5.17s3.76,7.49,5.17,12.49c2.14,7.67,4.58,16.37,11.76,20.53s15.76,1.89,23.42-.06c5.1-1.29,10.36-2.62,13.65-1.75,3,.81,6.8,4.5,10.43,8.06,4.33,4.23,9.08,8.88,14.77,10.94v94.28H449.38Zm-12,50H174.2V39H437.38ZM140.1,361.47a21.44,21.44,0,0,0-5.58-.69c-4.65,0-9.44,1.22-14.12,2.4-5.44,1.38-11.61,2.95-14.46,1.3s-4.61-7.64-6.22-13.38c-1.82-6.49-3.7-13.19-8.24-17.74s-11.25-6.42-17.74-8.24c-5.74-1.6-11.67-3.27-13.38-6.22s-.08-9,1.3-14.46c1.67-6.58,3.4-13.39,1.71-19.7-1.62-6.07-6.42-11-11.07-15.72-4.22-4.32-8.6-8.79-8.6-12.38s4.38-8,8.6-12.37c4.65-4.74,9.45-9.65,11.07-15.72,1.69-6.31,0-13.12-1.71-19.7-1.38-5.44-2.95-11.61-1.3-14.46s7.64-4.62,13.38-6.22c6.49-1.82,13.2-3.7,17.74-8.24s6.42-11.26,8.24-17.74c1.61-5.74,3.27-11.67,6.22-13.38s9-.08,14.46,1.3c6.59,1.67,13.39,3.39,19.7,1.71,6.08-1.62,11-6.43,15.73-11.07,4.32-4.23,8.79-8.6,12.37-8.6s8.05,4.37,12.37,8.6c4.74,4.64,9.65,9.45,15.73,11.07,6.3,1.69,13.11,0,19.7-1.71,5.44-1.38,11.6-3,14.46-1.3s4.61,7.64,6.22,13.38c1.81,6.49,3.69,13.19,8.24,17.74s11.25,6.42,17.74,8.24c5.73,1.6,11.67,3.27,13.37,6.22s.09,9-1.29,14.46c-1.67,6.58-3.4,13.39-1.72,19.7,1.63,6.07,6.43,11,11.07,15.72,4.23,4.32,8.6,8.79,8.6,12.37s-4.37,8.06-8.6,12.38c-4.64,4.74-9.44,9.65-11.07,15.72-1.68,6.31.05,13.12,1.72,19.7,1.38,5.44,2.94,11.61,1.29,14.46s-7.64,4.62-13.37,6.22c-6.49,1.82-13.2,3.7-17.74,8.24s-6.43,11.25-8.24,17.74c-1.61,5.74-3.27,11.67-6.22,13.38s-9,.08-14.46-1.3c-6.59-1.67-13.4-3.4-19.7-1.71-6.08,1.62-11,6.43-15.73,11.07-4.32,4.23-8.79,8.6-12.37,8.6s-8-4.37-12.37-8.6C151.08,367.9,146.18,363.09,140.1,361.47Zm34.1,112.87v-55H437.38v55Z"/></g></svg>